<svg width="93" height="33" viewBox="0 0 93 33" fill="none" xmlns="http://www.w3.org/2000/svg">
<g clip-path="url(#clip0_129_1599)">
<path d="M26.5552 26.6053C27.0689 26.6053 27.4942 26.7792 27.8353 27.1229C28.1848 27.4666 28.3532 27.8952 28.3532 28.4044C28.3532 28.9135 28.1848 29.3336 27.8353 29.6858C27.4942 30.0295 27.0689 30.2035 26.5552 30.2035H25.4477V32.0789H24.5551V26.6095H26.5552V26.6053ZM26.5552 29.3548C27.0816 29.3548 27.4605 28.956 27.4605 28.4001C27.4605 27.8443 27.0816 27.4454 26.5552 27.4454H25.4477V29.3506H26.5552V29.3548Z" fill="#103559"/>
<path d="M29.6967 30.513C29.8258 31.0611 30.3288 31.3625 31.0099 31.3625C31.4774 31.3625 31.8291 31.2099 32.0694 30.9163L32.7995 31.2921C32.3989 31.8166 31.7979 32.0789 31.0055 32.0789C30.3422 32.0789 29.7991 31.8989 29.3895 31.5465C28.98 31.1864 28.7752 30.7323 28.7752 30.1842C28.7752 29.6361 28.98 29.1977 29.3806 28.8375C29.7813 28.4695 30.3066 28.2895 30.9387 28.2895C31.5352 28.2895 32.0294 28.4774 32.4122 28.8454C32.7995 29.2133 32.9954 29.6674 32.9954 30.192C32.9954 30.2703 32.9865 30.3799 32.9642 30.5169H29.7012L29.6967 30.513ZM32.1006 29.8788C31.976 29.2955 31.5085 28.9902 30.9298 28.9902C30.2754 28.9902 29.8169 29.3308 29.6923 29.8788H32.1006Z" fill="#103559"/>
<path d="M35.5275 28.9369H34.5589V30.8176C34.5589 31.3197 34.886 31.3112 35.5275 31.2814V32.0431C34.236 32.2005 33.7134 31.8474 33.7134 30.8219V28.9411H32.9954V28.1241H33.7134V27.2774L34.5589 27.0263V28.1241H35.5275V28.9411V28.9369Z" fill="#103559"/>
<path d="M37.6093 29.8452C38.18 29.9667 38.9195 30.1979 38.9034 30.9699C38.9034 31.3148 38.7627 31.5891 38.4894 31.785C38.2162 31.981 37.8746 32.0789 37.4606 32.0789C36.7292 32.0789 36.1866 31.7615 35.9495 31.2364L36.6368 30.8484C36.7613 31.1933 37.0346 31.3696 37.4566 31.3696C37.8786 31.3696 38.0876 31.2325 38.0876 30.966C38.0876 30.7348 37.7781 30.5976 37.3843 30.5036C36.8297 30.3664 36.0821 30.1509 36.0982 29.3906C36.0982 29.0575 36.2228 28.7911 36.484 28.5912C36.7412 28.3874 37.0708 28.2895 37.4526 28.2895C38.0675 28.2895 38.5618 28.5716 38.823 29.0419L38.1478 29.4102C38.0233 29.1359 37.7861 28.9988 37.4526 28.9988C37.1512 28.9988 36.9141 29.1281 36.9141 29.3828C36.9141 29.6218 37.2235 29.7433 37.6093 29.8531V29.8452Z" fill="#103559"/>
<path d="M43.9679 27.4101C43.303 27.356 42.9796 27.61 42.9796 28.1681V28.2431H43.9679V29.0428H42.9796V32.0789H42.0734V29.0428H41.4358V28.2431H42.0734V28.1681C42.0734 27.1186 42.7292 26.5438 43.9679 26.6105V27.4101Z" fill="#103559"/>
<path d="M45.0064 31.5309C44.5983 31.1629 44.3899 30.7166 44.3899 30.1842C44.3899 29.6518 44.5983 29.2055 45.0064 28.8375C45.4145 28.4695 45.9182 28.2895 46.5 28.2895C47.0818 28.2895 47.5854 28.4695 47.9935 28.8375C48.4017 29.2055 48.6101 29.6518 48.6101 30.1842C48.6101 30.7166 48.4017 31.1629 47.9935 31.5309C47.5854 31.8989 47.0905 32.0789 46.5 32.0789C45.9095 32.0789 45.4145 31.8989 45.0064 31.5309ZM46.5 31.3234C46.8517 31.3234 47.1469 31.2138 47.3857 30.9985C47.6245 30.7832 47.7461 30.5091 47.7461 30.1842C47.7461 29.8593 47.6245 29.5852 47.3857 29.3699C47.1469 29.1546 46.8517 29.045 46.5 29.045C46.1483 29.045 45.8531 29.1546 45.6143 29.3699C45.3755 29.5852 45.2539 29.8593 45.2539 30.1842C45.2539 30.5091 45.3755 30.7832 45.6143 30.9985C45.8531 31.2138 46.1483 31.3234 46.5 31.3234Z" fill="#103559"/>
<path d="M49.9015 28.981C50.1199 28.52 50.5393 28.2895 51.1422 28.2895V29.159C50.8145 29.1347 50.5218 29.2115 50.2728 29.3814C50.0238 29.5472 49.9015 29.8222 49.9015 30.2024V32.0789H49.0321V28.3542H49.9015V28.981Z" fill="#103559"/>
<path d="M57.4725 30.5162C57.4725 30.9621 57.3228 31.3358 57.0195 31.6331C56.7161 31.9303 56.348 32.0789 55.9111 32.0789H53.6743V26.6053H55.7453C56.17 26.6053 56.5341 26.7539 56.8253 27.0426C57.1246 27.3314 57.2702 27.6923 57.2702 28.1212C57.2702 28.5968 57.0923 28.9663 56.7404 29.2381C57.1934 29.4886 57.4684 29.943 57.4684 30.512L57.4725 30.5162ZM54.5318 27.4503V28.8898H55.7453C56.1255 28.8898 56.4168 28.5756 56.4168 28.1722C56.4168 27.7688 56.1255 27.4545 55.7453 27.4545H54.5318V27.4503ZM55.9111 31.2339C56.3075 31.2339 56.619 30.8984 56.619 30.4695C56.619 30.0406 56.3075 29.7052 55.9111 29.7052H54.5318V31.2381H55.9111V31.2339Z" fill="#103559"/>
<path d="M59.2371 30.513C59.366 31.0611 59.8685 31.3625 60.5489 31.3625C61.0158 31.3625 61.3672 31.2099 61.6073 30.9163L62.3366 31.2921C61.9364 31.8166 61.336 32.0789 60.5445 32.0789C59.8819 32.0789 59.3393 31.8989 58.9302 31.5465C58.5211 31.1864 58.3165 30.7323 58.3165 30.1842C58.3165 29.6361 58.5211 29.1977 58.9213 28.8375C59.3215 28.4695 59.8463 28.2895 60.4778 28.2895C61.0737 28.2895 61.5673 28.4774 61.9542 28.8454C62.341 29.2133 62.5367 29.6674 62.5367 30.192C62.5367 30.2703 62.5278 30.3799 62.5056 30.5169H59.2459L59.2371 30.513ZM61.6384 29.8788C61.5139 29.2955 61.047 28.9902 60.4689 28.9902C59.8152 28.9902 59.3571 29.3308 59.2326 29.8788H61.6429H61.6384Z" fill="#103559"/>
<path d="M64.1965 29.8452C64.7672 29.9667 65.5066 30.1979 65.4906 30.9699C65.4906 31.3148 65.3499 31.5891 65.0766 31.785C64.8033 31.981 64.4617 32.0789 64.0478 32.0789C63.3163 32.0789 62.7738 31.7615 62.5367 31.2364L63.2239 30.8484C63.3485 31.1933 63.6218 31.3696 64.0438 31.3696C64.4657 31.3696 64.6747 31.2325 64.6747 30.966C64.6747 30.7348 64.3653 30.5976 63.9714 30.5036C63.4168 30.3664 62.6693 30.1509 62.6854 29.3906C62.6854 29.0575 62.81 28.7911 63.0712 28.5912C63.3284 28.3874 63.6579 28.2895 64.0397 28.2895C64.6546 28.2895 65.1489 28.5716 65.4102 29.0419L64.735 29.4102C64.6104 29.1359 64.3733 28.9988 64.0397 28.9988C63.7383 28.9988 63.5012 29.1281 63.5012 29.3828C63.5012 29.6218 63.8107 29.7433 64.1965 29.8531V29.8452Z" fill="#103559"/>
<path d="M68.445 28.9369H67.4779V30.8176C67.4779 31.3197 67.8045 31.3112 68.445 31.2814V32.0431C67.1556 32.2005 66.6339 31.8474 66.6339 30.8219V28.9411H65.9128V28.1241H66.6339V27.2774L67.4779 27.0263V28.1241H68.445V28.9411V28.9369Z" fill="#103559"/>
<path d="M20.4909 3.07165C20.3804 1.98264 19.9429 1.76315 19.0933 1.76315H15.474C14.6797 1.76315 14.4885 1.89822 14.1869 2.77196L11.4725 11.598L8.75804 2.77196C8.45644 1.89822 8.26528 1.76315 7.47092 1.76315H3.84742C2.99783 1.76315 2.56029 1.98264 2.44985 3.07165L0.529778 20.3986C0.449067 21.0233 0.50429 21.2724 1.05227 21.3526L5.19402 21.952C5.82271 22.0322 5.9629 21.8971 6.04361 21.4328L6.94842 13.3159L8.89398 20.9178C9.08513 21.5425 9.33151 21.7916 9.96446 21.7916H12.9805C13.6092 21.7916 13.8598 21.5467 14.051 20.9178L15.971 13.3159L16.9013 21.4328C16.9821 21.8971 17.1222 22.0322 17.7509 21.952L21.8927 21.3526C22.4407 21.2724 22.4959 21.0276 22.4152 20.3986L20.4909 3.07165Z" fill="#103559"/>
<path d="M30.4633 6.39474C25.8152 6.39474 23.289 9.58064 23.289 13.9737C23.289 18.3667 25.8152 21.5526 30.4633 21.5526C35.1115 21.5526 37.6376 18.3667 37.6376 13.9737C37.6376 9.58064 35.1115 6.39474 30.4633 6.39474ZM30.4633 16.5954C29.3476 16.5954 28.7497 15.55 28.7497 13.9695C28.7497 12.389 29.3476 11.3437 30.4633 11.3437C31.579 11.3437 32.1769 12.389 32.1769 13.9695C32.1769 15.55 31.579 16.5954 30.4633 16.5954Z" fill="#103559"/>
<path d="M48.0615 6.40316C47.1086 6.40316 39.9792 6.59247 39.5154 7.24456C39.3257 7.46333 39.3257 7.76203 39.3257 8.27528L39.5449 20.1138C39.5702 21.1993 39.819 21.5526 40.7676 21.5526H44.0899C45.0427 21.5526 45.3126 21.1993 45.3126 20.1138V11.9396C45.7215 11.805 45.8564 11.7503 46.3202 11.7208C46.9442 11.6956 47.2435 11.8849 47.4375 12.3982C47.5724 12.9409 47.6019 13.757 47.6019 14.8677L47.5766 20.1096C47.5766 21.195 47.876 21.5484 48.8288 21.5484H52.2312C53.1841 21.5484 53.4286 21.195 53.4539 20.1096L53.6731 12.8862C53.6984 11.1192 53.319 9.49111 52.4209 8.29632C51.4681 7.10152 50.0515 6.39474 48.0657 6.39474L48.0615 6.40316Z" fill="#103559"/>
<path d="M60.8312 8.07895H57.4113C56.4755 8.07895 56.2064 8.40165 56.2064 9.48708V20.1194C56.2064 21.2006 56.4755 21.5526 57.4113 21.5526H60.885C61.8207 21.5526 62.1147 21.2006 62.1147 20.1194L62.0609 9.48708C62.0609 8.43098 61.7669 8.07895 60.8312 8.07895Z" fill="#103559"/>
<path d="M59.3716 0.921051C57.346 0.921051 56.2064 2.16833 56.2064 3.86842C56.2064 5.56851 57.346 6.81579 59.3716 6.81579C61.3971 6.81579 62.5367 5.56851 62.5367 3.86842C62.5367 2.16833 61.3971 0.921051 59.3716 0.921051Z" fill="#103559"/>
<path d="M74.0576 6.83575H71.9539V3.17524C71.9539 2.09096 71.6754 1.76315 70.7114 1.76315H67.4467C66.4784 1.76315 66.1742 2.11618 66.1742 3.17524V6.83575H64.5161C63.6035 6.83575 63.3807 6.99965 63.3807 7.84018V10.7988C63.3807 11.6394 63.6035 11.8033 64.5161 11.8033H66.1742V16.9557C66.1742 20.4271 68.0251 21.9737 71.5126 21.9737C72.5366 21.9737 73.5606 21.8938 74.5289 21.7005C74.9445 21.6207 75.0559 21.5114 75.0559 21.1037L74.9188 16.9515C74.9188 16.5985 74.726 16.464 74.3661 16.5439C74.0619 16.6237 73.7577 16.6783 73.3421 16.6783C72.5409 16.6783 71.9582 16.4052 71.9582 15.241V11.7949H74.0619C74.9745 11.7949 75.1973 11.631 75.1973 10.7904V7.83177C75.1973 6.99125 74.9745 6.82734 74.0619 6.82734L74.0576 6.83575Z" fill="#103559"/>
<path d="M83.2156 6.39474C78.5674 6.39474 76.0413 9.58064 76.0413 13.9737C76.0413 18.3667 78.5674 21.5526 83.2156 21.5526C87.8637 21.5526 90.3899 18.3667 90.3899 13.9737C90.3899 9.58064 87.8637 6.39474 83.2156 6.39474ZM83.2156 16.5954C82.0998 16.5954 81.502 15.55 81.502 13.9695C81.502 12.389 82.0998 11.3437 83.2156 11.3437C84.3313 11.3437 84.9292 12.389 84.9292 13.9695C84.9292 15.55 84.3313 16.5954 83.2156 16.5954Z" fill="#103559"/>
<path d="M91.7242 6.98837C91.2365 6.63657 90.4378 6.83983 89.9334 7.4418C89.4289 8.04377 89.4163 8.81774 89.8997 9.16954C90.3874 9.52134 91.1861 9.31808 91.6905 8.71611C92.195 8.11413 92.2076 7.34017 91.7242 6.98837Z" fill="#103559"/>
<path d="M80.2481 5.96493C80.8213 5.87691 81.1969 5.15177 81.0862 4.34281C80.9755 3.53384 80.426 2.94702 79.8528 3.03505C79.2796 3.12307 78.9041 3.84821 79.0148 4.65717C79.1255 5.46614 79.6749 6.05296 80.2481 5.96493Z" fill="#103559"/>
<path d="M87.6752 6.70874C88.4682 7.10905 89.6686 6.35194 90.3521 5.01612C91.0356 3.6803 90.948 2.27051 90.1506 1.8702C89.3576 1.46989 88.1571 2.227 87.4736 3.56282C86.7902 4.89864 86.8778 6.30843 87.6752 6.70874Z" fill="#103559"/>
<path d="M83.5697 5.5458C84.3689 5.64752 85.1444 4.60073 85.2987 3.21067C85.453 1.81637 84.9307 0.608539 84.1276 0.506827C83.3284 0.405115 82.5529 1.4519 82.3986 2.84196C82.2443 4.23626 82.7665 5.44409 83.5697 5.5458Z" fill="#103559"/>
</g>
<defs>
<clipPath id="clip0_129_1599">
<rect width="92" height="32" fill="white" transform="translate(0.5 0.5)"/>
</clipPath>
</defs>
</svg>
